<?xml version="1.0" standalone="no"?>
<!DOCTYPE svg PUBLIC "-//W3C//DTD SVG 20010904//EN"
 "http://www.w3.org/TR/2001/REC-SVG-20010904/DTD/svg10.dtd">
<svg version="1.0" xmlns="http://www.w3.org/2000/svg"
 width="100.000000pt" height="100.000000pt" viewBox="0 0 100.000000 100.000000"
 preserveAspectRatio="xMidYMid meet">

<g transform="translate(0.000000,100.000000) scale(0.100000,-0.100000)"
fill="#000000" stroke="none">
<path d="M684 847 c-3 -8 -4 -47 -2 -88 l3 -74 85 0 85 0 0 85 0 85 -83 3
c-63 2 -84 0 -88 -11z m146 -77 l0 -60 -60 0 -60 0 0 60 0 60 60 0 60 0 0 -60z"/>
<path d="M425 760 l-60 -60 63 -63 62 -62 62 62 63 63 -60 60 c-33 33 -62 60
-65 60 -3 0 -32 -27 -65 -60z m110 -20 l39 -40 -42 -43 -42 -42 -42 42 -42 43
39 40 c21 22 42 40 45 40 3 0 24 -18 45 -40z"/>
<path d="M145 658 c-3 -7 -4 -126 -3 -263 l3 -250 265 0 265 0 0 95 0 95 -82
3 -82 3 -3 82 -3 82 -82 3 -82 3 -3 77 -3 77 -93 3 c-69 2 -94 -1 -97 -10z
m165 -83 l0 -65 -70 0 -70 0 0 65 0 65 70 0 70 0 0 -65z m0 -165 l0 -70 -70 0
-70 0 0 70 0 70 70 0 70 0 0 -70z m170 0 l0 -70 -70 0 -70 0 0 70 0 70 70 0
70 0 0 -70z m-170 -170 l0 -70 -70 0 -70 0 0 70 0 70 70 0 70 0 0 -70z m170 0
l0 -70 -70 0 -70 0 0 70 0 70 70 0 70 0 0 -70z m170 0 l0 -70 -70 0 -70 0 0
70 0 70 70 0 70 0 0 -70z"/>
<path d="M675 570 l-60 -60 63 -63 62 -62 62 62 63 63 -60 60 c-33 33 -62 60
-65 60 -3 0 -32 -27 -65 -60z m110 -20 l39 -40 -42 -43 -42 -42 -42 42 -42 43
39 40 c21 22 42 40 45 40 3 0 24 -18 45 -40z"/>
</g>
</svg>
